<svg width="168" height="168" viewBox="0 0 168 168" fill="none" xmlns="http://www.w3.org/2000/svg">
<path d="M84.0001 0.666656C130.023 0.666656 167.333 37.9762 167.333 84C167.333 130.023 130.023 167.333 84.0001 167.333C37.9763 167.333 0.666748 130.023 0.666748 84C0.666748 37.9762 37.9763 0.666656 84.0001 0.666656ZM84.0001 13.1667C44.8799 13.1667 13.1667 44.8798 13.1667 84C13.1667 123.12 44.8799 154.833 84.0001 154.833C123.12 154.833 154.833 123.12 154.833 84C154.833 44.8798 123.12 13.1667 84.0001 13.1667ZM73.5834 95.9942L110.831 58.7472C113.272 56.3065 117.228 56.3065 119.669 58.7472C121.888 60.9662 122.09 64.4383 120.274 66.8851L119.669 67.5858L78.0026 109.253C75.7843 111.472 72.3118 111.673 69.8651 109.857L69.1643 109.253L48.3307 88.4192C45.8899 85.9783 45.8899 82.0217 48.3307 79.5808C50.5496 77.3617 54.0218 77.16 56.4685 78.9758L57.1695 79.5808L73.5834 95.9942Z" fill="#CDCDCD"/>
</svg>
