<svg width="168" height="168" viewBox="0 0 168 168" fill="none" xmlns="http://www.w3.org/2000/svg">
<path d="M84.0001 0.666656C130.023 0.666656 167.333 37.9762 167.333 84C167.333 130.023 130.023 167.333 84.0001 167.333C37.9763 167.333 0.666748 130.023 0.666748 84C0.666748 37.9762 37.9763 0.666656 84.0001 0.666656ZM84.0001 13.1667C44.8799 13.1667 13.1667 44.8798 13.1667 84C13.1667 123.12 44.8799 154.833 84.0001 154.833C123.12 154.833 154.833 123.12 154.833 84C154.833 44.8798 123.12 13.1667 84.0001 13.1667ZM112.718 53.9754L113.419 54.5806C115.638 56.7995 115.84 60.2717 114.024 62.7184L113.419 63.4194L92.8418 84L113.419 104.581C115.638 106.799 115.84 110.272 114.024 112.718L113.419 113.419C111.201 115.638 107.728 115.84 105.282 114.024L104.581 113.419L84.0001 92.8417L63.4195 113.419C61.2006 115.638 57.7284 115.84 55.2817 114.024L54.5807 113.419C52.3618 111.201 52.1601 107.728 53.9755 105.282L54.5807 104.581L75.1584 84L54.5807 63.4194C52.3618 61.2005 52.1601 57.7283 53.9755 55.2816L54.5807 54.5806C56.7996 52.3617 60.2718 52.16 62.7185 53.9754L63.4195 54.5806L84.0001 75.1583L104.581 54.5806C106.799 52.3617 110.272 52.16 112.718 53.9754Z" fill="#CDCDCD"/>
</svg>
